<svg width="214" height="88" viewBox="0 0 214 88" fill="none" xmlns="http://www.w3.org/2000/svg">
<path d="M127.511 12.2522C91.286 12.2522 54.3661 11.3874 21.4805 28.2746C11.8906 33.1991 -5.65566 50.6195 5.6937 61.9688C12.8399 69.115 21.6618 70.4823 31.3767 71.1582C50.6027 72.4956 70.0714 71.6294 89.3402 71.6294C109.524 71.6294 130.547 73.356 150.602 71.1582C159.22 70.2138 185.117 73.9775 190.305 65.8566C203.562 45.1066 196.46 31.0238 180.527 16.9647C159.845 -1.28368 122.127 0.536768 96.2911 4.94786C73.8186 8.78463 35.9275 14.9502 23.6011 36.5215C20.1093 42.6321 15.4794 58.0531 15.1186 65.2676C14.099 85.6608 43.4703 86.4737 58.4734 86.4737C68.0101 86.4737 76.7031 82.8614 86.1592 82.3503C98.5022 81.6831 110.917 82.5413 123.27 82.2325C138.971 81.8399 164.359 82.4812 178.406 75.8706C186.265 72.1724 194.122 70.5905 202.086 66.2101C218.145 57.3775 212.92 36.9016 197.374 28.1568C172.817 14.3436 141.974 16.4934 114.788 16.4934" stroke="#67ACEB" stroke-width="3" stroke-linecap="round"/>
</svg>
