<svg width="222" height="79" viewBox="0 0 222 79" fill="none" xmlns="http://www.w3.org/2000/svg">
<path d="M156.805 4.12061C132.361 4.12061 106.631 2 83.0546 2C63.1413 2 41.2053 3.64617 23.2061 13.0743C10.9828 19.477 2 32.904 2 46.5329C2 69.7921 60.5243 63.4978 76.6928 63.4978C100.962 63.4978 125.231 63.4978 149.501 63.4978C165.277 63.4978 177.58 61.1102 192.62 56.1935C200.638 53.5721 222.558 45.5354 219.952 33.8092C215.428 13.4499 184.37 12.593 168.233 9.53996C138.875 3.98585 107.43 5.22832 77.8709 8.83309C65.4359 10.3496 51.8708 12.3772 42.2917 21.0855C34.7174 27.9713 21.386 29.7601 14.9593 36.9901C10.6272 41.8638 -1.32571 65.7116 10.0112 69.3884C47.9636 81.6973 93.6089 75.589 132.3 74.1009C149.525 73.4384 169.245 67.7628 184.373 60.1991C200.396 52.1876 196.79 44.2031 188.614 31.2174C182.156 20.9607 164.809 13.518 153.624 10.6003C136.22 6.05999 119.551 6.24123 101.669 6.24123" stroke="#80BB66" stroke-width="3" stroke-linecap="round"/>
</svg>
