<svg width="241" height="75" viewBox="0 0 241 75" fill="none" xmlns="http://www.w3.org/2000/svg">
<path d="M170.169 4.00935C143.615 4.00935 115.664 2 90.052 2C68.4196 2 44.5899 3.5598 25.0369 12.4933C11.7583 18.56 2 31.2826 2 44.1964C2 66.2353 65.5767 60.2712 83.1409 60.2712C109.505 60.2712 135.87 60.2712 162.234 60.2712C179.373 60.2712 192.738 58.0089 209.076 53.3501C217.786 50.8662 241.598 43.2512 238.768 32.1403C233.853 12.8492 200.114 12.0373 182.583 9.14436C150.692 3.88166 116.532 5.05894 84.4208 8.47458C70.9123 9.91148 56.1761 11.8328 45.77 20.0842C37.5418 26.6086 23.0596 28.3036 16.0781 35.1543C11.372 39.7722 -1.61282 62.3688 10.7028 65.8527C51.9316 77.5158 101.517 71.728 143.549 70.318C162.26 69.6903 183.684 64.3125 200.117 57.1456C217.523 49.5544 213.606 41.9888 204.724 29.6844C197.709 19.9659 178.864 12.9137 166.714 10.149C147.807 5.84697 129.699 6.0187 110.273 6.0187" stroke="#FFAAAA" stroke-width="3" stroke-linecap="round"/>
</svg>
