<svg width="219" height="82" viewBox="0 0 219 82" fill="none" xmlns="http://www.w3.org/2000/svg">
<path d="M140.732 2C131.351 2 125.329 3.1574 116.345 5.06311C104.407 7.5953 92.0003 4.4863 80.1764 7.30154C64.0486 11.1415 44.3185 6.10901 29.5172 13.0743C19.5981 17.7422 10.9585 22.0071 4.06986 30.8639C1.31558 34.4051 1.55231 53.7158 3.36299 57.136C5.53214 61.2333 22.2572 62.3318 26.1007 63.38C34.4428 65.6551 44.3081 67.7391 52.9618 67.7391C71.8623 67.7391 90.2985 69.8597 109.394 69.8597C136.215 69.8597 164.439 72.8959 190.684 66.5609C198.863 64.5866 208.301 63.1002 211.89 54.8975C218.835 39.0227 210.362 34.8793 196.692 25.3268C152.772 -5.36445 92.0608 3.56464 43.1834 15.784C21.355 21.2411 9.25359 22.4661 9.25359 46.5329C9.25359 86.1446 37.5 69.9742 80.1764 80.5C99.9426 80.5 113 80.5 140.732 76.5C157.017 71.8119 172.487 70.4211 188.328 64.4403C202.381 59.1343 214.078 52.8376 217.074 37.108C223.622 2.72952 152.131 13.8411 134.37 2" stroke="#B9A7E0" stroke-width="3" stroke-linecap="round"/>
</svg>
