<svg width="307" height="83" viewBox="0 0 307 83" fill="none" xmlns="http://www.w3.org/2000/svg">
<path d="M163.675 2C136.848 5.7653 108.539 -0.0969174 82.1495 5.18092C55.0686 10.5971 17.0273 0.979063 5.10046 32.6311C2.66977 39.0818 -1.17494 53.2868 6.74982 57.136C14.9954 61.141 28.6062 64.4406 37.7344 65.6184C73.0264 70.1722 109.758 67.7391 145.297 67.7391C172.393 67.7391 199.49 67.7391 226.587 67.7391C240.495 67.7391 253.773 67.1531 267.585 65.6184C275.198 64.7726 283.725 63.8723 287.378 55.9579C290.097 50.0653 291.905 37.4108 284.079 34.2805C277.423 31.6181 271.524 27.188 264.994 24.8555C252.689 20.4612 239.347 20.5035 226.587 18.0224C215.181 15.8047 198.195 20.0683 187.945 13.5456C182.054 9.79684 171.809 8.5449 164.853 8.36184C123.008 7.26065 78.508 4.29197 40.6797 23.2061C32.3605 27.3657 22.5928 30.4046 16.646 38.0504C10.2195 46.3131 6.86312 64.8671 17.942 70.8022C36.2859 80.6293 60.8786 79.891 80.8535 80.3449C108.044 80.9629 135.156 80.7323 162.262 78.8134C181.806 77.4297 200.405 78.0968 219.754 74.1009C235.619 70.8243 256.833 68.5215 269.824 58.3141C278.213 51.7229 299.19 54.4392 305.167 45.4726C307.097 42.5777 296.371 34.2722 294.682 33.338C271.33 20.4195 232.147 9.61363 205.499 8.47966C188.668 7.76344 172.007 4.12061 155.193 4.12061" stroke="#EDD653" stroke-width="3" stroke-linecap="round"/>
</svg>
